<svg width="21" height="21" viewBox="0 0 21 21" fill="none" xmlns="http://www.w3.org/2000/svg">
<path d="M10.221 5.12068C13.0692 5.12068 15.4201 7.47157 15.4201 10.3198C15.4201 13.2132 13.0692 15.5189 10.221 15.5189C7.32755 15.5189 5.02187 13.2132 5.02187 10.3198C5.02187 7.47157 7.32755 5.12068 10.221 5.12068ZM10.221 13.7105C12.0746 13.7105 13.5665 12.2186 13.5665 10.3198C13.5665 8.46618 12.0746 6.97427 10.221 6.97427C8.32216 6.97427 6.83025 8.46618 6.83025 10.3198C6.83025 12.2186 8.36737 13.7105 10.221 13.7105ZM16.8216 4.93984C16.8216 5.61798 16.279 6.1605 15.6009 6.1605C14.9228 6.1605 14.3802 5.61798 14.3802 4.93984C14.3802 4.2617 14.9228 3.71918 15.6009 3.71918C16.279 3.71918 16.8216 4.2617 16.8216 4.93984ZM20.2575 6.1605C20.3479 7.83325 20.3479 12.8515 20.2575 14.5243C20.1671 16.1518 19.8054 17.5533 18.6299 18.774C17.4545 19.9494 16.0078 20.3111 14.3802 20.4015C12.7075 20.4919 7.68923 20.4919 6.01648 20.4015C4.38893 20.3111 2.98744 19.9494 1.76678 18.774C0.591333 17.5533 0.229657 16.1518 0.139238 14.5243C0.0488189 12.8515 0.0488189 7.83325 0.139238 6.1605C0.229657 4.53295 0.591333 3.08625 1.76678 1.9108C2.98744 0.735353 4.38893 0.373676 6.01648 0.283257C7.68923 0.192838 12.7075 0.192838 14.3802 0.283257C16.0078 0.373676 17.4545 0.735353 18.6299 1.9108C19.8054 3.08625 20.1671 4.53295 20.2575 6.1605ZM18.0874 16.2874C18.6299 14.9764 18.4943 11.8117 18.4943 10.3198C18.4943 8.87307 18.6299 5.7084 18.0874 4.35211C17.7257 3.49313 17.0476 2.76978 16.1886 2.45331C14.8323 1.9108 11.6677 2.04643 10.221 2.04643C8.72905 2.04643 5.56438 1.9108 4.2533 2.45331C3.34911 2.81499 2.67097 3.49313 2.3093 4.35211C1.76678 5.7084 1.90241 8.87307 1.90241 10.3198C1.90241 11.8117 1.76678 14.9764 2.3093 16.2874C2.67097 17.1916 3.34911 17.8698 4.2533 18.2314C5.56438 18.774 8.72905 18.6383 10.221 18.6383C11.6677 18.6383 14.8323 18.774 16.1886 18.2314C17.0476 17.8698 17.771 17.1916 18.0874 16.2874Z" fill="url(#paint0_linear_2450_388)"/>
<defs>
<linearGradient id="paint0_linear_2450_388" x1="9.70161" y1="20.9925" x2="9.70192" y2="-1.91625" gradientUnits="userSpaceOnUse">
<stop stop-color="#2ABA64"/>
<stop offset="0.697917" stop-color="#3369FF"/>
</linearGradient>
</defs>
</svg>
