<svg width="21" height="21" viewBox="0 0 21 21" fill="none" xmlns="http://www.w3.org/2000/svg">
<path d="M5.09697 21H0.88967V7.47331H5.09697V21ZM2.9707 5.66372C1.65875 5.66372 0.572991 4.53272 0.572991 3.17553C0.572991 1.86358 1.65875 0.777822 2.9707 0.777822C4.32789 0.777822 5.41365 1.86358 5.41365 3.17553C5.41365 4.53272 4.32789 5.66372 2.9707 5.66372ZM20.7952 21H16.6331V14.4402C16.6331 12.8568 16.5879 10.8663 14.4164 10.8663C12.2449 10.8663 11.9282 12.5402 11.9282 14.3045V21H7.72088V7.47331H11.7472V9.32814H11.7925C12.3806 8.28762 13.7378 7.15663 15.7736 7.15663C20.0261 7.15663 20.8404 9.9615 20.8404 13.5807V21H20.7952Z" fill="url(#paint0_linear_2450_387)"/>
<defs>
<linearGradient id="paint0_linear_2450_387" x1="10.1927" y1="24.1655" x2="10.193" y2="0.0348852" gradientUnits="userSpaceOnUse">
<stop stop-color="#2ABA64"/>
<stop offset="0.697917" stop-color="#3369FF"/>
</linearGradient>
</defs>
</svg>
