<svg width="20" height="15" viewBox="0 0 20 15" fill="none" xmlns="http://www.w3.org/2000/svg">
<path d="M19.0833 5.05652C19.2353 4.9425 19.4633 5.05652 19.4633 5.24654V12.9995C19.4633 14.0256 18.6272 14.8237 17.6391 14.8237H1.82911C0.802982 14.8237 0.00488281 14.0256 0.00488281 12.9995V5.24654C0.00488281 5.05652 0.194906 4.9425 0.346925 5.05652C1.22103 5.7406 2.32317 6.5767 6.19965 9.38905C6.99775 9.95913 8.36592 11.2133 9.73409 11.2133C11.0643 11.2133 12.4704 9.95913 13.2305 9.38905C17.107 6.5767 18.2091 5.7406 19.0833 5.05652ZM9.73409 9.95913C8.82198 9.99713 7.56782 8.85699 6.92174 8.40093C1.86711 4.75248 1.48707 4.41044 0.346925 3.49832C0.118897 3.3463 0.00488281 3.08027 0.00488281 2.77623V2.05414C0.00488281 1.06602 0.802982 0.229916 1.82911 0.229916H17.6391C18.6272 0.229916 19.4633 1.06602 19.4633 2.05414V2.77623C19.4633 3.08027 19.3113 3.3463 19.0833 3.49832C17.9431 4.41044 17.5631 4.75248 12.5084 8.40093C11.8624 8.85699 10.6082 9.99713 9.73409 9.95913Z" fill="url(#paint0_linear_2450_384)"/>
<defs>
<linearGradient id="paint0_linear_2450_384" x1="9.48836" y1="17.2845" x2="9.48861" y2="-2.98704" gradientUnits="userSpaceOnUse">
<stop stop-color="#2ABA64"/>
<stop offset="0.697917" stop-color="#3369FF"/>
</linearGradient>
</defs>
</svg>
