<svg width="20" height="20" viewBox="0 0 20 20" fill="none" xmlns="http://www.w3.org/2000/svg">
<path d="M18.8932 14.0856C19.1973 14.2376 19.4253 14.5797 19.4253 14.9597C19.4253 14.9977 19.4253 15.0737 19.4253 15.1497L18.5132 19.1022C18.3992 19.5203 18.0571 19.7863 17.6391 19.7863C7.87186 19.7863 0.00488281 11.9193 0.00488281 2.15211C0.00488281 1.73406 0.270916 1.39202 0.688968 1.278L4.64146 0.365891C4.71747 0.365891 4.79348 0.327887 4.83148 0.327887C5.21153 0.327887 5.55357 0.555915 5.70559 0.897957L7.52982 5.15449C7.56782 5.2685 7.60583 5.38252 7.60583 5.49653C7.60583 5.80057 7.45381 6.0666 7.26379 6.21862L4.9455 8.11886C6.35167 11.0832 8.70797 13.4395 11.6723 14.8457L13.5726 12.5274C13.7246 12.3374 13.9906 12.1854 14.2567 12.1854C14.4087 12.1854 14.5227 12.2234 14.6367 12.2614L18.8932 14.0856Z" fill="url(#paint0_linear_2450_382)"/>
<defs>
<linearGradient id="paint0_linear_2450_382" x1="9.48836" y1="19.8148" x2="9.48861" y2="-0.456763" gradientUnits="userSpaceOnUse">
<stop stop-color="#2ABA64"/>
<stop offset="0.697917" stop-color="#3369FF"/>
</linearGradient>
</defs>
</svg>
