<svg width="19" height="22" viewBox="0 0 19 22" fill="none" xmlns="http://www.w3.org/2000/svg">
<path d="M18.9688 9.31951H18.9281C17.0571 9.31951 15.3488 8.75007 13.9658 7.73321V15.0139C13.9658 18.6746 10.9966 21.6032 7.33593 21.6032C3.67524 21.6032 0.746683 18.6746 0.746683 15.0139C0.746683 11.3532 3.67524 8.384 7.33593 8.384C7.66132 8.384 7.94604 8.42467 8.27144 8.46534V12.126C7.94604 12.004 7.66132 11.9633 7.33593 11.9633C5.66828 11.9633 4.28535 13.3463 4.28535 15.0139C4.28535 16.6816 5.66828 18.0645 7.33593 18.0645C9.00357 18.0645 10.3865 16.6816 10.3865 15.0139V0.777894H13.9658C13.9658 0.818568 13.9658 0.818568 13.9658 0.859243C13.9658 1.14396 13.9658 1.42868 14.0472 1.7134C14.2912 3.05566 15.1047 4.23521 16.2436 4.96735C17.0164 5.49612 17.9519 5.78084 18.9281 5.78084C18.9281 5.78084 18.9281 5.78084 18.9688 5.78084V9.31951Z" fill="url(#paint0_linear_2450_390)"/>
<defs>
<linearGradient id="paint0_linear_2450_390" x1="9.3956" y1="21.8278" x2="9.3959" y2="0.132281" gradientUnits="userSpaceOnUse">
<stop stop-color="#2ABA64"/>
<stop offset="0.697917" stop-color="#3369FF"/>
</linearGradient>
</defs>
</svg>
