<svg width="128" height="27" viewBox="0 0 128 27" fill="none" xmlns="http://www.w3.org/2000/svg">
<mask id="mask0_3004_965" style="mask-type:alpha" maskUnits="userSpaceOnUse" x="2" y="2" width="123" height="21">
<path d="M11.9968 3.42689C12.2692 2.58862 13.4551 2.58863 13.7275 3.4269L15.5178 8.93679C15.6396 9.31168 15.9889 9.5655 16.3831 9.5655H22.1765C23.0579 9.5655 23.4244 10.6934 22.7113 11.2115L18.0243 14.6168C17.7054 14.8485 17.572 15.2591 17.6938 15.634L19.4841 21.1439C19.7565 21.9822 18.797 22.6793 18.084 22.1612L13.3969 18.7559C13.0781 18.5242 12.6462 18.5242 12.3273 18.7559L7.64034 22.1612C6.92726 22.6793 5.96783 21.9822 6.2402 21.1439L8.03047 15.634C8.15228 15.2591 8.01884 14.8485 7.69994 14.6168L3.01294 11.2115C2.29987 10.6934 2.66634 9.5655 3.54775 9.5655H9.3412C9.73538 9.5655 10.0847 9.31168 10.2065 8.93679L11.9968 3.42689Z" fill="url(#paint0_linear_3004_965)"/>
<path d="M37.4734 3.42689C37.7457 2.58862 38.9317 2.58863 39.204 3.4269L40.9943 8.93679C41.1161 9.31168 41.4655 9.5655 41.8596 9.5655H47.6531C48.5345 9.5655 48.901 10.6934 48.1879 11.2115L43.5009 14.6168C43.182 14.8485 43.0486 15.2591 43.1704 15.634L44.9607 21.1439C45.233 21.9822 44.2736 22.6793 43.5605 22.1612L38.8735 18.7559C38.5546 18.5242 38.1228 18.5242 37.8039 18.7559L33.1169 22.1612C32.4038 22.6793 31.4444 21.9822 31.7168 21.1439L33.507 15.634C33.6288 15.2591 33.4954 14.8485 33.1765 14.6168L28.4895 11.2115C27.7764 10.6934 28.1429 9.5655 29.0243 9.5655H34.8178C35.2119 9.5655 35.5613 9.31168 35.6831 8.93679L37.4734 3.42689Z" fill="url(#paint1_linear_3004_965)"/>
<path d="M62.949 3.42689C63.2213 2.58862 64.4073 2.58863 64.6796 3.4269L66.4699 8.93679C66.5917 9.31168 66.9411 9.5655 67.3352 9.5655H73.1287C74.0101 9.5655 74.3766 10.6934 73.6635 11.2115L68.9765 14.6168C68.6576 14.8485 68.5242 15.2591 68.646 15.634L70.4362 21.1439C70.7086 21.9822 69.7492 22.6793 69.0361 22.1612L64.3491 18.7559C64.0302 18.5242 63.5984 18.5242 63.2795 18.7559L58.5925 22.1612C57.8794 22.6793 56.92 21.9822 57.1923 21.1439L58.9826 15.634C59.1044 15.2591 58.971 14.8485 58.6521 14.6168L53.9651 11.2115C53.252 10.6934 53.6185 9.5655 54.4999 9.5655H60.2934C60.6875 9.5655 61.0369 9.31168 61.1587 8.93679L62.949 3.42689Z" fill="url(#paint2_linear_3004_965)"/>
<path d="M88.4255 3.42689C88.6979 2.58862 89.8838 2.58863 90.1562 3.4269L91.9465 8.93679C92.0683 9.31168 92.4176 9.5655 92.8118 9.5655H98.6053C99.4867 9.5655 99.8531 10.6934 99.1401 11.2115L94.4531 14.6168C94.1342 14.8485 94.0007 15.2591 94.1225 15.634L95.9128 21.1439C96.1852 21.9822 95.2257 22.6793 94.5127 22.1612L89.8257 18.7559C89.5068 18.5242 89.0749 18.5242 88.7561 18.7559L84.069 22.1612C83.356 22.6793 82.3965 21.9822 82.6689 21.1439L84.4592 15.634C84.581 15.2591 84.4476 14.8485 84.1287 14.6168L79.4417 11.2115C78.7286 10.6934 79.0951 9.5655 79.9765 9.5655H85.7699C86.1641 9.5655 86.5134 9.31168 86.6352 8.93679L88.4255 3.42689Z" fill="url(#paint3_linear_3004_965)"/>
<path d="M113.901 3.42689C114.173 2.58862 115.359 2.58863 115.632 3.4269L117.422 8.93679C117.544 9.31168 117.893 9.5655 118.287 9.5655H124.081C124.962 9.5655 125.329 10.6934 124.616 11.2115L119.929 14.6168C119.61 14.8485 119.476 15.2591 119.598 15.634L121.388 21.1439C121.661 21.9822 120.701 22.6793 119.988 22.1612L115.301 18.7559C114.982 18.5242 114.551 18.5242 114.232 18.7559L109.545 22.1612C108.832 22.6793 107.872 21.9822 108.144 21.1439L109.935 15.634C110.057 15.2591 109.923 14.8485 109.604 14.6168L104.917 11.2115C104.204 10.6934 104.571 9.5655 105.452 9.5655H111.245C111.64 9.5655 111.989 9.31168 112.111 8.93679L113.901 3.42689Z" fill="url(#paint4_linear_3004_965)"/>
</mask>
<g mask="url(#mask0_3004_965)">
<rect x="-7.3584" y="-1.10742" width="142.159" height="29.9283" fill="#2ABA64"/>
</g>
<defs>
<linearGradient id="paint0_linear_3004_965" x1="12.227" y1="26.243" x2="12.2274" y2="-0.297838" gradientUnits="userSpaceOnUse">
<stop stop-color="#2ABA64"/>
<stop offset="0.697917" stop-color="#3369FF"/>
</linearGradient>
<linearGradient id="paint1_linear_3004_965" x1="37.7036" y1="26.243" x2="37.7039" y2="-0.297838" gradientUnits="userSpaceOnUse">
<stop stop-color="#2ABA64"/>
<stop offset="0.697917" stop-color="#3369FF"/>
</linearGradient>
<linearGradient id="paint2_linear_3004_965" x1="63.1792" y1="26.243" x2="63.1795" y2="-0.297838" gradientUnits="userSpaceOnUse">
<stop stop-color="#2ABA64"/>
<stop offset="0.697917" stop-color="#3369FF"/>
</linearGradient>
<linearGradient id="paint3_linear_3004_965" x1="88.6557" y1="26.243" x2="88.6561" y2="-0.297838" gradientUnits="userSpaceOnUse">
<stop stop-color="#2ABA64"/>
<stop offset="0.697917" stop-color="#3369FF"/>
</linearGradient>
<linearGradient id="paint4_linear_3004_965" x1="114.131" y1="26.243" x2="114.132" y2="-0.297838" gradientUnits="userSpaceOnUse">
<stop stop-color="#2ABA64"/>
<stop offset="0.697917" stop-color="#3369FF"/>
</linearGradient>
</defs>
</svg>
